<svg id="Layer_1" data-name="Layer 1" xmlns="http://www.w3.org/2000/svg" xmlns:xlink="http://www.w3.org/1999/xlink" viewBox="0 0 150 33.56"><defs><style>.cls-1{fill:url(#linear-gradient);}.cls-2{fill:#63bfb2;}.cls-3{fill:#010101;}.cls-4{fill:url(#linear-gradient-2);}.cls-5{fill:#79c4ac;}.cls-6{fill:#5cb78c;}.cls-7{fill:none;}.cls-8{fill:url(#linear-gradient-3);}.cls-9{fill:#0196c5;}.cls-10{fill:url(#linear-gradient-4);}.cls-11{fill:#57bfc8;}.cls-12{fill:#1b779e;}.cls-13{fill:#24264d;}.cls-14{fill:#0f9386;}.cls-15{fill:#6dbe9a;}.cls-16{fill:#80c9c8;}.cls-17{fill:#6dc3c0;}.cls-18{fill:#3a949c;}.cls-19{fill:#73c2ab;}.cls-20{fill:#85c8b8;}.cls-21{fill:#87c9bd;}.cls-22{fill:#9dd2c9;}.cls-23{opacity:0.3;fill:url(#linear-gradient-5);}.cls-23,.cls-24,.cls-25{isolation:isolate;}.cls-24{opacity:0.2;fill:url(#linear-gradient-6);}.cls-25{opacity:0.15;fill:url(#linear-gradient-7);}</style><linearGradient id="linear-gradient" x1="57.63" y1="6.59" x2="69.75" y2="20.21" gradientTransform="matrix(1, 0, 0, -1, 0, 34.72)" gradientUnits="userSpaceOnUse"><stop offset="0.17" stop-color="#5cb78c"/><stop offset="1" stop-color="#e8f3e9"/></linearGradient><linearGradient id="linear-gradient-2" x1="45.5" y1="27.44" x2="52.99" y2="19.16" gradientTransform="matrix(1, 0, 0, -1, 0, 34.52)" gradientUnits="userSpaceOnUse"><stop offset="0.08" stop-color="#85c8b8"/><stop offset="1" stop-color="#e7f3ed"/></linearGradient><linearGradient id="linear-gradient-3" x1="97.65" y1="6.1" x2="91.84" y2="16.95" gradientTransform="matrix(1, 0, 0, -1, 0, 34.72)" gradientUnits="userSpaceOnUse"><stop offset="0.17" stop-color="#0196c5"/><stop offset="0.25" stop-color="#119bc8"/><stop offset="0.4" stop-color="#35aacf"/><stop offset="0.61" stop-color="#6ac1dd"/><stop offset="0.86" stop-color="#b6e0ec"/><stop offset="1" stop-color="#e1f2f7"/></linearGradient><linearGradient id="linear-gradient-4" x1="73.58" y1="31.16" x2="81.81" y2="19.54" gradientTransform="matrix(1, 0, 0, -1, 0, 34.52)" gradientUnits="userSpaceOnUse"><stop offset="0.15" stop-color="#57bfc8"/><stop offset="1" stop-color="#daeff5"/></linearGradient><linearGradient id="linear-gradient-5" x1="9.03" y1="17.08" x2="36.51" y2="19.94" gradientTransform="matrix(1, 0, 0, -1, 0, 34.52)" gradientUnits="userSpaceOnUse"><stop offset="0.66" stop-color="#fff"/><stop offset="0.7" stop-color="#fcfcfc"/><stop offset="0.74" stop-color="#efeeee"/><stop offset="0.78" stop-color="#d9d9d9"/><stop offset="0.82" stop-color="#bcbcbb"/><stop offset="0.87" stop-color="#979797"/><stop offset="0.91" stop-color="#6a6a69"/><stop offset="0.95" stop-color="#333"/><stop offset="0.98" stop-color="#010101"/></linearGradient><linearGradient id="linear-gradient-6" x1="38.11" y1="16.7" x2="0.26" y2="19.7" gradientTransform="matrix(1, 0, 0, -1, 0, 34.52)" gradientUnits="userSpaceOnUse"><stop offset="0.66" stop-color="#fff"/><stop offset="0.7" stop-color="#fcfcfc"/><stop offset="0.75" stop-color="#efeeee"/><stop offset="0.79" stop-color="#d9d9d9"/><stop offset="0.83" stop-color="#bcbcbb"/><stop offset="0.88" stop-color="#979797"/><stop offset="0.92" stop-color="#6a6a69"/><stop offset="0.96" stop-color="#333"/><stop offset="1" stop-color="#010101"/></linearGradient><linearGradient id="linear-gradient-7" x1="20.64" y1="32.86" x2="20.41" y2="0.33" xlink:href="#linear-gradient-5"/></defs><title>metacube_logo</title><path class="cls-1" d="M64.32,5.44h9V8.32H67.78v5.82h4.74V17H67.78v5.81h5.51v2.89h-9Z" transform="translate(0 -0.2)"/><path class="cls-2" d="M110.74,21.79q0,4.28-5,4.28t-5-4.28V9.36q0-4.27,5-4.27t5,4.27V12.1h-3.47V9.36q0-1.38-1.5-1.38h0q-1.5,0-1.5,1.38V21.79c0,.93.5,1.39,1.5,1.39s1.5-.46,1.5-1.39V19.06h3.47Z" transform="translate(0 -0.2)"/><path class="cls-2" d="M124,21.79q0,4.28-5,4.28t-5-4.28V5.44h3.46V21.79c0,.93.5,1.39,1.5,1.39s1.5-.46,1.5-1.39V5.44H124Z" transform="translate(0 -0.2)"/><path class="cls-2" d="M127.68,5.44H133q4.62,0,4.62,4.27v3a2.82,2.82,0,0,1-1.89,2.81,2.85,2.85,0,0,1,1.89,2.81v3.08c0,2.85-1.62,4.27-4.82,4.27h-5.11Zm3.46,2.88v5.82h1.08a5.26,5.26,0,0,0,1-.08,1.29,1.29,0,0,0,.92-1.31v-3c0-.93-.5-1.39-1.5-1.39Zm0,8.7v5.81h1.5q1.5,0,1.5-1.38V18.37a1.21,1.21,0,0,0-.92-1.27,3.07,3.07,0,0,0-1-.08Z" transform="translate(0 -0.2)"/><path class="cls-2" d="M141,5.44h9V8.32h-5.5v5.82h4.73V17H144.5v5.81H150v2.89h-9Z" transform="translate(0 -0.2)"/><polygon class="cls-3" points="57.04 5.24 53.04 19.13 49.96 8.62 45.5 8.62 45.5 25.52 48.84 25.52 48.84 14.13 51.89 25.52 54.23 25.52 57.2 14.13 57.2 25.52 60.51 25.52 60.51 5.24 57.04 5.24"/><polygon class="cls-4" points="57.04 5.24 53.04 19.13 49.96 8.62 45.5 8.62 45.5 25.52 48.84 25.52 48.84 14.13 51.89 25.52 54.23 25.52 57.2 14.13 57.2 25.52 60.51 25.52 60.51 5.24 57.04 5.24"/><polygon class="cls-5" points="48.96 5.24 45.5 5.24 45.5 8.62 49.96 8.62 48.96 5.24"/><rect class="cls-6" x="64.32" y="22.63" width="3.46" height="2.89"/><polygon class="cls-7" points="91.11 18.32 93.73 18.32 92.42 9.89 91.11 18.32"/><path class="cls-8" d="M97.23,18.52,94.8,5.44H90.07L87.64,18.56l-1.11,7.16H90l.7-4.31h3.54l.19,1.12h3.5Zm-6.12,0,1.31-8.43,1.31,8.43Z" transform="translate(0 -0.2)"/><polygon class="cls-9" points="98.34 25.52 97.84 22.32 94.38 22.32 94.88 25.52 98.34 25.52"/><polygon class="cls-10" points="78.75 5.24 78.75 8.66 78.75 8.66 78.75 25.52 82.18 25.52 82.18 8.12 85.41 8.12 85.41 5.24 78.75 5.24"/><polygon class="cls-11" points="78.75 5.24 75.48 5.24 75.48 8.12 78.75 8.12 78.75 8.66 78.75 8.66 78.75 5.24"/><polygon class="cls-11" points="0 3.54 0 10.05 5.85 13.59 5.85 7.04 0 3.54"/><polygon class="cls-12" points="5.85 7.04 5.85 13.59 11.7 17.13 11.7 10.59 5.85 7.04"/><polygon class="cls-13" points="11.7 10.59 11.7 17.13 17.55 20.67 17.55 14.13 11.7 10.59"/><polygon class="cls-13" points="23.44 10.59 23.44 17.13 17.55 20.67 17.55 14.13 23.44 10.59"/><polygon class="cls-14" points="29.29 7.04 29.29 13.59 23.44 17.13 23.44 10.59 29.29 7.04"/><polygon class="cls-15" points="35.14 3.54 35.14 10.05 29.29 13.59 29.29 7.04 35.14 3.54"/><polygon class="cls-16" points="0 9.93 0 16.47 5.85 20.02 5.85 13.47 0 9.93"/><polygon class="cls-17" points="5.85 13.47 5.85 20.02 11.7 23.52 11.7 17.01 5.85 13.47"/><polygon class="cls-18" points="11.7 17.01 11.7 23.52 17.55 27.06 17.55 20.52 11.7 17.01"/><polygon class="cls-18" points="23.44 17.01 23.44 23.52 17.55 27.06 17.55 20.52 23.44 17.01"/><polygon class="cls-19" points="29.29 13.47 29.29 20.02 23.44 23.52 23.44 17.01 29.29 13.47"/><polygon class="cls-20" points="35.14 9.93 35.14 16.47 29.29 20.02 29.29 13.47 35.14 9.93"/><polygon class="cls-21" points="0 16.44 0 22.98 5.85 26.52 5.85 19.98 0 16.44"/><polygon class="cls-21" points="11.7 23.52 11.7 30.02 17.55 33.56 17.55 27.02 11.7 23.52"/><polygon class="cls-21" points="23.44 23.52 23.44 30.02 17.55 33.56 17.55 27.02 23.44 23.52"/><polygon class="cls-22" points="35.14 16.44 35.14 22.98 29.29 26.52 29.29 19.98 35.14 16.44"/><polygon class="cls-11" points="11.7 3.54 5.85 0 0 3.54 5.85 7.04 11.7 3.54"/><polygon class="cls-12" points="17.55 7.04 11.7 3.54 5.85 7.04 11.7 10.59 17.55 7.04"/><polygon class="cls-13" points="23.4 10.59 17.55 7.04 11.7 10.59 17.55 14.13 23.44 10.59 23.4 10.59"/><polygon class="cls-2" points="23.4 3.54 17.55 0 11.7 3.54 17.55 7.04 23.44 3.54 23.4 3.54"/><polygon class="cls-14" points="29.29 7.04 23.4 3.54 17.55 7.04 23.44 10.59 29.29 7.04"/><polygon class="cls-15" points="35.14 3.54 29.29 0 23.4 3.54 29.29 7.04 35.14 3.54"/><polygon class="cls-23" points="17.55 27.06 29.29 20.02 29.29 26.52 35.14 22.98 35.14 3.54 17.55 14.13 17.55 27.06"/><polygon class="cls-24" points="17.55 27.06 5.85 20.02 5.85 26.52 0 22.98 0 3.54 17.55 14.13 17.55 27.06"/><polygon class="cls-25" points="17.55 14.13 17.55 20.55 17.55 20.67 17.55 27.06 17.55 27.06 17.55 33.56 23.44 30.06 23.44 23.56 23.44 23.52 23.44 17.13 23.44 17.01 23.44 10.59 17.55 14.13"/></svg>