<?xml version="1.0" encoding="utf-8"?>
<!-- Generator: Adobe Illustrator 24.0.1, SVG Export Plug-In . SVG Version: 6.00 Build 0)  -->
<svg version="1.1" id="Layer_1" xmlns="http://www.w3.org/2000/svg" xmlns:xlink="http://www.w3.org/1999/xlink" x="0px" y="0px"
	 viewBox="0 0 595.3 841.9" style="enable-background:new 0 0 595.3 841.9;" xml:space="preserve">
<g>
	<polygon points="136,165.6 104.6,165.6 103.9,177.2 134.4,177.2 	"/>
	<polygon points="139.7,165.6 129.8,233.7 139.7,233.7 149.6,165.6 	"/>
	<path d="M163.2,177.2h35.4l1.6-11.5H165H155l-6.8,44.3h9.9h7.9l-1.6,11.2h-16.7c0,0-2.5,1.3-2.3,12.6h43.6l2.3-12.6h-17l1.6-11.2
		h17.2l1.6-10.6h-35L163.2,177.2z"/>
	<polygon points="105.7,180.1 104.3,217.2 112.3,217.2 113.9,217.2 121.9,217.2 131.5,180.1 122.5,180.1 116,208.1 112.9,208.1 
		114.7,180.1 	"/>
	<polygon points="249.1,193.7 250.9,182.5 246.9,182.5 249.5,165.3 239.5,165.3 232.8,209.9 242.8,209.9 245.2,193.7 	"/>
	<polygon points="299,204.6 300.7,193.4 296.4,193.4 300.7,165.6 290.8,165.6 280.2,233.7 290.1,233.7 294.6,204.6 	"/>
	<polygon points="411.2,206.3 418.1,175.8 421.7,175.8 419.2,206.3 429,206.3 430.5,165.6 422.3,165.6 420.6,165.6 412.4,165.6 
		401.9,206.3 	"/>
	<polygon points="392.9,165.6 390.3,182.5 380.3,182.5 378.5,193.7 388.5,193.7 386.8,204.6 376.6,204.6 374.8,215.9 385.1,215.9 
		382.3,233.7 392.2,233.7 402.8,165.6 	"/>
	<path d="M208,211.1h-9.9l-2.3,17.2c-0.2,1.5-0.5,3.2-0.7,5.4h9.9h33.7l2.3-12.6h-34.3L208,211.1z"/>
	<path d="M311.4,211.1h-9.9l-2.5,18.1c-0.2,1.2-0.4,2.7-0.6,4.5h9.9h34.5l1.5-11.3h-34.5L311.4,211.1z"/>
	<path d="M435.3,209.2h-34.5l-1,9.3H434l-2.2,15.2h9.9l2.5-17.6c0.3-1.4,0.6-3.6,1-6.9H435.3z"/>
	<path d="M368.2,165.3h-9.9l-8.9,59.7c-0.4,1.9-0.8,4.6-1.3,8.7h9.9h14.7l1.5-12.6h-14.3L368.2,165.3z"/>
	<path d="M94.6,233.7h31l2.3-12.6h-31C96.9,221.1,94.4,222.4,94.6,233.7z"/>
	<path d="M206.5,208.1h11.5c7.9-1.8,9.8-10.2,9.8-10.2l3.2-23.5c0-6.8-5.2-8.8-5.2-8.8h-13.8c-5.1,2.5-7.8,7.9-9.3,15.8l-2.4,16.5
		C199.9,206.3,206.5,208.1,206.5,208.1z M212.6,175.7h9.3l-3.5,22.3h-9.3L212.6,175.7z"/>
	<path d="M257.1,165.2l-10.6,68.4l30,0.1l10.6-68.4L257.1,165.2z M268.1,222.4l-8.7-0.1l7.1-46.7l8.7,0.1L268.1,222.4z"/>
	<polygon points="349.8,189.1 312.7,189.1 313,186.3 350.2,186.3 353.4,165.3 309.1,165.2 307.6,174.9 344.7,174.9 344.4,178 
		307.1,178 304.2,197.5 348.6,197.5 	"/>
	<polygon points="450.6,209.1 487.6,209.1 487.3,211.8 450.1,211.8 447.1,233.7 491.4,233.7 493.1,222.5 456,222.5 456.4,220.1 
		493.6,220.1 496.2,200.5 451.9,200.5 	"/>
	<polygon points="301.9,209.1 346.3,209.1 347.5,200.7 303.2,200.7 	"/>
	<polygon points="453.8,189 452.3,197.6 496.7,197.5 498.2,189 491,189 	"/>
	<polygon points="500.5,175.5 502.2,165.1 457.9,165.1 454.1,186.5 498.6,186.5 500.1,178.1 462.9,178.1 463.4,175.5 	"/>
	<polygon points="442.6,165 440.2,180.9 433.4,180.9 431.6,191.8 438.4,191.8 436.2,206.3 446.1,206.3 452.5,165 	"/>
</g>
</svg>
