<?xml version="1.0" encoding="utf-8"?>
<!-- Generator: Adobe Illustrator 24.0.1, SVG Export Plug-In . SVG Version: 6.00 Build 0)  -->
<svg version="1.1" id="Layer_1" xmlns="http://www.w3.org/2000/svg" xmlns:xlink="http://www.w3.org/1999/xlink" x="0px" y="0px"
	 viewBox="0 0 229 120.9" style="enable-background:new 0 0 229 120.9;" xml:space="preserve">
<style type="text/css">
	.st0{fill:#FFFFFF;}
</style>
<title>sindorim_logo_ci</title>
<path class="st0" d="M36.7,39.8l4.7-11.4c2.2,1.6,3.7,4,4.1,6.7l0.2,3.6c0.1,5.5,2.9,8.2,2.9,8.2c6.6,3.8,9.3-2,9.3-2
	c2.3-7.3-5-14.1-5-14.1c-5.4-6-10.3-5.8-10.3-5.8l6.8-15c0.5-1.2,0-2.6-1.2-3.2c-0.1,0-0.1,0-0.2-0.1l-9.9-4.2
	c-1.7-0.5-2.2,0.7-2.2,0.7c-0.5,1.3,0.1,2.8,1.4,3.3c0.1,0.1,0.3,0.1,0.4,0.1C38,6.9,38.4,7,38.8,7.1L23.5,43.9
	c-0.3,0.7-0.8,1.3-1.3,1.8c-1,0.6-1.3,1.8-0.7,2.7c0,0,0,0.1,0.1,0.1c1.2,1.7,2.9,0,2.9,0l9.4-5.1C35.4,42.8,36.5,41.4,36.7,39.8z"
	/>
<path class="st0" d="M64.3,4c0.7-0.1,1.3,0.2,1.7,0.7c0.3,0.9,0.1,0.9,0.1,0.9L66,46c0,0.7,0.4,1.4,1,1.9c0.6,0.4,1.4,0.3,1.9-0.3
	c0,0,0-0.1,0.1-0.1l4.6-2.8c0.6-0.5,1.4-0.8,2.2-0.7c1.5-0.8,0.4-2.4,0.4-2.4C76.1,41.4,76,41,76,40.7l0.3-31.6c0-0.9,0-0.6,0-0.6
	C76.8,7.8,77.1,6.9,77,6c-0.1-2.8-3.5-2.8-3.5-2.8c-2.1-0.7-4.1-1.5-6-2.5c-3-1.7-4.3,0-4.3,0C61.8,3.3,64.3,4,64.3,4z"/>
<path class="st0" d="M76,62.3c-1.1-0.9-4.8-0.7-4.8-0.7c-0.6,0-1.1-0.1-1.7-0.2c-1.4-0.4-1.9,0.2-1.9,0.2c-0.2,0.2-0.5,0.4-0.7,0.6
	c-0.6,0.8-1.2,1.6-1.2,1.6c-0.6,0.8-1.5,1.3-2.5,1.6h-19l0.6-16c0.1-2.1-1.6-1.9-1.6-1.9l-9-2.5c-2.4-0.6-2.5,1.4-2.5,1.4
	c-0.3,2,2.3,2.5,2.3,2.5c1.2,0.4,0.7,1.1,0.7,1.1l0.2,14.8c0,1.1-0.4,0.9-0.4,0.9c-2.1-0.2-2.5,1.3-2.5,1.3c-0.4,0.9,0.1,2,1,2.4
	c0.3,0.1,0.6,0.2,1,0.1h40.1c1.4,0.1,2.9,0,4.3-0.3c2.7-1.3,0.5-3.8,0.5-3.8L76,62.3z"/>
<path class="st0" d="M92.6,36.5c-1.1,0-2,0.9-2,2c0,0.1,0,0.3,0,0.4c0,0.5,0.2,0.9,0.6,1.2c1.3,0.1,2.7,0.1,4,0
	c2.8-0.2,31.3-0.7,31.3-0.7c2.1-0.4,10.2-0.3,10.2-0.3c1.4-0.1,1,0.1,1,0.1c0.2,0.5,1.1,0.7,1.1,0.7c3-0.6,1.2-3,1.2-3l-2.6-2.7
	c-0.8-1.2-2.8-1.2-2.8-1.2c-1.4,0.1-5.3,0-5.3,0c-1-0.3-2.1,0.1-2.8,1c-1,0.7-2.1,1.2-3.3,1.5l-17.5,0.4l0.8-22.1l16.8-0.5
	c0.7-0.3,0.8-0.2,0.8-0.2c3.5,0.1,9,0.2,9,0.2c2.1,0,2.4-1.4,2.4-1.4c0.2-1.6-0.6-2-0.6-2c-0.3-0.2-0.5-0.4-0.6-0.7
	c-0.4-0.9-1.3-1.5-2.3-1.6h-4.5c-1.5,0.1-3,0.8-4.1,1.9H106c-1.1-2.3-2.8-1.8-2.8-1.8c-1.4,0.2-10.6,0-10.6,0
	c-3.3,0.8-1.3,3.8-1.3,3.8l2.5,2.4l-0.4,22.8L92.6,36.5z"/>
<path class="st0" d="M143.3,55.7c-0.6-0.8-1.8-1.1-2.7-0.6c-1.3,0.1-6-0.3-6-0.3c-2.1-0.1-3.1,2.3-3.1,2.3c-0.7,0.8-1.7,1.3-2.7,1.3
	h-10.1V46.7c0.1-2.1-2.4-2.5-2.4-2.5c-1.2-0.1-2.4-0.4-3.5-0.9c-1.3-0.2-2.6-0.6-3.9-1c-2.2-0.3-2.4,1.2-2.4,1.2
	c-0.5,2.3,1.3,2.5,1.3,2.5l0.1,12.4H95.4c-1-0.1-2-0.6-2.7-1.4c-0.9-0.7-2.1-1-3.2-0.6c-2.4,0.2-4.9,0.1-7.3-0.4
	c-0.8-0.2-1.5,0.3-1.8,1c-0.7,1.9,1.9,2.8,1.9,2.8c1.1,0.7,2.2,1.6,3.1,2.6c0.7,1.1,2.9,0.5,2.9,0.5c0.6-0.2,1.2-0.3,1.8-0.4
	l45.9-0.8c2.1-0.2,4.2-0.2,6.3-0.1c2.1,0.3,2.7-0.5,2.7-0.5c1.6-1.1,0-3.4,0-3.4L143.3,55.7z"/>
<path class="st0" d="M159.3,44.8l19.1-3.7l10.5-4.1c4-2.4,3.5-4.6,3.5-4.6c0-1.9-3.1-1.4-3.1-1.4c-1.1,0.3-4.8,0.8-4.8,0.8L163,33.1
	l0.2-7.3h17.7c3.4,0.1,3.6-1.9,3.6-1.9l4.7-12.1c0.9-2.8-1.6-3.3-1.6-3.3l-7.9-2c-1.6-0.4-4.8,1.7-4.8,1.7
	c-2.2,0.4-13.6,0.3-13.6,0.3c-1-0.7-2.1-1-3.3-1l-7.1-0.6c-3-0.2-1.5,2.4-1.5,2.4c0.6,0.7,3.2,3,3.2,3c1.1,0.9,1.7,0.5,1.7,0.5
	l20-0.2l0.1,9.3c-0.5-0.3-1.2-0.5-1.8-0.4l-9.3-0.2c-0.7-0.5-1.4-0.9-2.2-1.2l-9.2-0.2c-1.9,0-2.3,1-2.3,1c-0.6,0.8-0.3,2,0.5,2.5
	c0,0,0.1,0,0.1,0.1c0.7,0.3,1.2,0.8,1.6,1.4l-0.2,11c0,1,0.1,2.1,0.4,3.1l4.6,5.1C157.2,44.8,158.3,45.1,159.3,44.8z"/>
<path class="st0" d="M203.3,5.6l-10.2-3.5C192,2,191,2.8,190.9,3.9c0,0.4,0,0.8,0.2,1.1c0.8,0.9,1.9,1.4,3.1,1.4l-0.4,39.2
	c-0.7-0.6-1.8-0.7-2.5-0.2l-2.4,1.5c-1.1,0.7-2.3,1.1-3.6,1.2l-11.6-0.1c-2-0.2-2.4-1-2.4-1c-0.2-0.5-0.7-0.9-1.3-0.9l-9.1,0.4
	c-2.5-0.1-2.4,0.7-2.4,0.7c-0.8,1-0.7,2.5,0.3,3.3c0,0,0,0,0,0c0.8,0.5,1.4,1.2,1.7,2.1l-0.5,13.1c-4.2-0.3-2.8,3-2.8,3
	c0.9,1,2.2,1.3,3.5,0.9c2.4-0.2,20-0.4,20-0.4l16.9-0.3c3.9-0.2,3.2-2.6,3.2-2.6c0.1-1.8-2.8-1.8-2.8-1.8l2.7-11.9
	c0.6-3.9-1.4-4.5-1.4-4.5l-3.7-2l7.4-4.3c0.4-0.5,0.7-1,0.9-1.7l0.7-31.7C204.7,6.1,203.3,5.6,203.3,5.6z M187.3,65
	c0,0-4.3,0.2-5.8,0c-0.9-0.2-1.9-0.2-2.8,0.1c0,0-4.9,0.6-6,0v-13h15.1L187.3,65z"/>
<polygon class="st0" points="23.3,82.7 5.7,82.7 5.3,89.1 22.4,89.1 "/>
<polygon class="st0" points="25.4,82.7 19.8,120.9 25.4,120.9 30.9,82.7 "/>
<path class="st0" d="M38.5,89.2h19.9l0.9-6.5H34l-3.8,24.9h10l-0.9,6.3h-9.4c0,0-1.4,0.7-1.3,7.1h24.5l1.3-7.1h-9.5l0.9-6.3h9.6
	l0.9-6H36.6L38.5,89.2z"/>
<polygon class="st0" points="6.2,90.8 5.4,111.7 9.9,111.7 10.8,111.7 15.3,111.7 20.7,90.8 15.7,90.8 12,106.5 10.3,106.5 
	11.3,90.8 "/>
<polygon class="st0" points="86.8,98.4 87.8,92.1 85.6,92.1 87,82.5 81.4,82.5 77.7,107.6 83.2,107.6 84.6,98.4 "/>
<polygon class="st0" points="114.8,104.6 115.8,98.3 113.3,98.3 115.8,82.7 110.2,82.7 104.2,120.9 109.8,120.9 112.4,104.6 "/>
<polygon class="st0" points="177.8,105.5 181.7,88.4 183.7,88.4 182.3,105.5 187.9,105.5 188.7,82.7 184.1,82.7 183.1,82.7 
	178.5,82.7 172.6,105.5 "/>
<polygon class="st0" points="167.6,82.7 166.1,92.1 160.5,92.1 159.5,98.4 165.1,98.4 164.2,104.6 158.4,104.6 157.4,110.9 
	163.2,110.9 161.6,120.9 167.2,120.9 173.1,82.7 "/>
<path class="st0" d="M63.7,108.2h-5.6l-1.3,9.7c-0.1,0.8-0.3,1.8-0.4,3h24.5l1.3-7.1H62.9L63.7,108.2z"/>
<path class="st0" d="M121.8,108.2h-5.6l-1.4,10.2c-0.1,0.7-0.2,1.5-0.3,2.5h25l0.8-6.3H121L121.8,108.2z"/>
<path class="st0" d="M191.4,107.1H172l-0.6,5.2h19.2l-1.2,8.6h5.6l1.4-9.9c0.1-0.8,0.3-2,0.6-3.9H191.4z"/>
<path class="st0" d="M153.7,82.5h-5.6l-5,33.6c-0.2,1.1-0.4,2.6-0.7,4.9h13.8l0.8-7.1h-8L153.7,82.5z"/>
<path class="st0" d="M0,120.9h17.4l1.3-7.1H1.3C1.3,113.8-0.1,114.6,0,120.9z"/>
<path class="st0" d="M62.9,106.5h6.4c4.4-1,5.5-5.7,5.5-5.7l1.8-13.2c0.1-2.1-1-4-2.9-4.9h-7.7c-2.9,1.4-4.4,4.4-5.2,8.9l-1.3,9.3
	C59.1,105.5,62.9,106.5,62.9,106.5z M66.3,88.3h5.2l-2,12.5h-5.2L66.3,88.3z"/>
<path class="st0" d="M91.3,82.5l-6,38.4h16.8l6-38.4H91.3z M97.6,114.6h-4.9l4-26.2h4.9L97.6,114.6z"/>
<polygon class="st0" points="143.4,95.8 122.5,95.8 122.7,94.3 143.6,94.3 145.4,82.5 120.5,82.4 119.7,87.9 140.5,87.9 140.3,89.6 
	119.4,89.6 117.8,100.5 142.7,100.6 "/>
<polygon class="st0" points="200,107.1 220.8,107.1 220.6,108.6 199.7,108.6 198,120.9 222.9,120.9 223.9,114.6 203,114.6 
	203.2,113.3 224.1,113.3 225.6,102.3 200.7,102.2 "/>
<polygon class="st0" points="116.5,107.1 141.4,107.1 142.1,102.4 117.2,102.3 "/>
<polygon class="st0" points="201.8,95.8 201,100.6 225.9,100.6 226.7,95.8 222.7,95.8 "/>
<polygon class="st0" points="228,88.2 229,82.3 204.1,82.4 202,94.4 227,94.4 227.8,89.7 206.9,89.7 207.2,88.2 "/>
<polygon class="st0" points="195.5,82.3 194.1,91.2 190.4,91.2 189.3,97.4 193.2,97.4 191.9,105.5 197.5,105.5 201.1,82.3 "/>
</svg>
