<?xml version="1.0" encoding="utf-8"?>
<!-- Generator: Adobe Illustrator 24.0.1, SVG Export Plug-In . SVG Version: 6.00 Build 0)  -->
<svg version="1.1" id="Layer_1" xmlns="http://www.w3.org/2000/svg" xmlns:xlink="http://www.w3.org/1999/xlink" x="0px" y="0px"
	 viewBox="0 0 595.3 841.9" style="enable-background:new 0 0 595.3 841.9;" xml:space="preserve">
<g>
	<path d="M149.9,161.3l9.2-22.3c7.2,5.4,8,13.1,8,13.1l0.3,7.1c0.2,10.8,5.7,16,5.7,16c12.9,7.4,18.2-4,18.2-4
		c4.5-14.2-9.7-27.5-9.7-27.5c-10.5-11.7-20.1-11.2-20.1-11.2l13.2-29.2c1.8-4.6-2.8-6.3-2.8-6.3l-19.4-8.2
		c-3.4-0.9-4.3,1.4-4.3,1.4c-1.7,5.5,3.5,6.8,3.5,6.8c1.5,0.7,2.3,0.6,2.3,0.6l-30,71.8c-1.1,2.2-2.5,3.5-2.5,3.5
		c-3.4,2.8-1.2,5.5-1.2,5.5c2.3,3.4,5.7,0,5.7,0l18.3-10C149.1,166.5,149.9,161.3,149.9,161.3z"/>
	<path d="M203.7,91.5c2.5,0,3.3,1.4,3.3,1.4c0.6,1.8,0.2,1.7,0.2,1.7l-0.2,78.7c0.1,2.4,2,3.7,2,3.7c2.4,1.5,3.8-0.8,3.8-0.8l9-5.4
		c2.7-1.8,4.4-1.3,4.4-1.3c3-1.5,0.8-4.6,0.8-4.6c-0.5-0.7-0.3-1.7-0.3-1.7l0.6-61.6c0-1.8,0.1-1.3,0.1-1.3c1.6-2.9,1.4-4.8,1.4-4.8
		c-0.2-5.5-6.8-5.4-6.8-5.4c-3.6-0.8-11.7-4.8-11.7-4.8c-5.9-3.3-8.3,0-8.3,0C198.9,90.2,203.7,91.5,203.7,91.5z"/>
	<path d="M226.5,205.2c-2.1-1.7-9.4-1.4-9.4-1.4c-2.6-0.1-3.3-0.3-3.3-0.3c-2.7-0.7-3.6,0.4-3.6,0.4s-0.7,0.5-1.3,1.2
		c-1.2,1.5-2.3,3.1-2.3,3.1c-1.7,2.3-4.8,3.1-4.8,3.1h-37.1l1.2-31.3c0.2-4-3.1-3.8-3.1-3.8l-17.5-4.8c-4.6-1.2-4.8,2.8-4.8,2.8
		c-0.6,3.9,4.5,4.9,4.5,4.9c2.3,0.8,1.4,2.2,1.4,2.2l0.4,28.8c-0.1,2.1-0.8,1.8-0.8,1.8c-4.3-0.3-5,2.5-5,2.5
		c-1.2,5.2,3.8,4.9,3.8,4.9l78.3,0c5.7,0.2,8.3-0.6,8.3-0.6c5.2-2.6,0.9-7.4,0.9-7.4L226.5,205.2z"/>
	<path d="M258.9,155c-4.7,0.7-3.8,4.7-3.8,4.7c-0.2,1.5,1.2,2.3,1.2,2.3c1.5,0.5,7.7,0,7.7,0c5.4-0.3,61-1.4,61-1.4
		c4.2-0.8,20-0.6,20-0.6c2.7-0.1,2,0.1,2,0.1c0.3,1,2.1,1.3,2.1,1.3c5.9-1.2,2.4-5.9,2.4-5.9l-5.1-5.3C345,148,341,148,341,148
		c-2.7,0.1-10.4,0-10.4,0c-4-0.3-5.3,2.1-5.3,2.1c-3.2,2.4-6.5,2.9-6.5,2.9l-34.2,0.7l1.6-43.2l32.8-1c1.3-0.6,1.6-0.3,1.6-0.3
		c6.8,0.2,17.7,0.3,17.7,0.3c4,0.1,4.7-2.7,4.7-2.7c0.5-3.1-1.3-3.8-1.3-3.8c-0.9-0.5-1.3-1.4-1.3-1.4c-1.4-3.1-4.5-3.3-4.5-3.3
		h-8.9c-4.8,0.4-8,3.7-8,3.7h-34c-2.2-4.5-5.5-3.6-5.5-3.6c-2.8,0.3-20.7,0-20.7,0c-6.5,1.5-2.5,7.5-2.5,7.5l5,4.6l-0.8,44.3
		L258.9,155z"/>
	<path d="M357.8,192.4c-2.3-2.8-5.2-1.2-5.2-1.2c-2.6,0.2-11.7-0.6-11.7-0.6c-4.2-0.2-6.1,4.5-6.1,4.5c-2.1,2.4-5.3,2.6-5.3,2.6
		h-19.7l0-23c0.2-4-4.7-4.9-4.7-4.9c-4.2-0.5-6.8-1.7-6.8-1.7c-5.1-1-7.6-2-7.6-2c-4.3-0.6-4.6,2.4-4.6,2.4c-0.9,4.4,2.5,5,2.5,5
		l0.2,24.2h-24.2c-3.5-0.3-5.3-2.7-5.3-2.7c-2.4-2.5-6.1-1.2-6.1-1.2c-8.7,0.6-14.2-0.7-14.2-0.7c-2.8-0.3-3.5,1.9-3.5,1.9
		c-1.4,3.7,3.7,5.5,3.7,5.5c2,0.7,6,5,6,5c1.4,2.1,5.7,1,5.7,1c2.1-0.7,3.6-0.8,3.6-0.8l89.5-1.5c6.9-0.6,12.2-0.1,12.2-0.1
		c4.2,0.6,5.3-1,5.3-1c3.1-2.1,0-6.6,0-6.6L357.8,192.4z"/>
	<path d="M389.2,171.1l37.2-7.3l20.5-8c7.8-4.8,6.8-8.9,6.8-8.9c0-3.7-6.1-2.8-6.1-2.8c-2.3,0.6-9.3,1.5-9.3,1.5l-42,2.6l0.3-14.3
		l34.6,0c6.6,0.2,6.9-3.7,6.9-3.7l9.1-23.7c1.7-5.4-3.1-6.5-3.1-6.5l-15.4-3.8c-3.1-0.8-9.4,3.4-9.4,3.4c-4.3,0.8-26.5,0.6-26.5,0.6
		c-2.5-2-6.5-2-6.5-2L372.5,97c-5.8-0.3-2.9,4.6-2.9,4.6c1.2,1.4,6.3,5.8,6.3,5.8c2.2,1.7,3.4,0.9,3.4,0.9l39.1-0.5l0.2,18.2
		c-1.5-1.1-3.5-0.8-3.5-0.8l-18.2-0.3c-1.1-1.1-4.3-2.3-4.3-2.3l-18-0.3c-3.7,0-4.5,2-4.5,2c-1.8,3.4,1.2,5.1,1.2,5.1
		c2.3,1.1,3.1,2.8,3.1,2.8l-0.5,21.4c0.2,4.8,0.8,6,0.8,6l9.1,10C386.4,172.2,389.2,171.1,389.2,171.1z"/>
	<path d="M474.8,94.5L455,87.8c-6.2,0.3-3.8,5.7-3.8,5.7c2.5,2.8,6,2.7,6,2.7l-0.8,76.6c-2.6-2.2-4.9-0.3-4.9-0.3l-4.6,2.9
		c-3.1,2-6.9,2.3-6.9,2.3l-22.6-0.2c-3.8-0.3-4.8-1.8-4.8-1.8c-0.6-1.8-2.5-1.8-2.5-1.8l-17.7,0.8c-4.9-0.2-4.8,1.4-4.8,1.4
		c-2.8,3.7,0.8,6.5,0.8,6.5c2.3,0.9,3.4,4.1,3.4,4.1l-0.9,25.6c-8.2-0.6-5.4,5.8-5.4,5.8c2.8,3.2,6.8,1.7,6.8,1.7
		c4.6-0.5,39.1-0.8,39.1-0.8l32.9-0.6c7.7-0.5,6.3-5.1,6.3-5.1c0.2-3.5-5.5-3.5-5.5-3.5l5.2-23.1c1.2-7.6-2.8-8.7-2.8-8.7l-7.2-3.8
		l14.5-8.5c1.2-0.9,1.7-3.2,1.7-3.2l1.4-61.9C477.6,95.6,474.8,94.5,474.8,94.5z M443.6,210.5c0,0-8.3,0.3-11.4,0
		c0,0-2.9-0.8-5.5,0.1c0,0-9.5,1.1-11.7,0v-25.4h29.4L443.6,210.5z"/>
</g>
</svg>
