<svg id="Layer_1" data-name="Layer 1" xmlns="http://www.w3.org/2000/svg" viewBox="0 0 228.98 120.91"><title>sindorim_logo_ci</title>
<path d="M37.17,43.32,41.9,31.89a10.38,10.38,0,0,1,4.1,6.7l.16,3.62c.08,5.52,2.92,8.21,2.92,8.21,6.62,3.78,9.3-2.05,9.3-2.05,2.29-7.26-5-14.12-5-14.12-5.36-6-10.3-5.76-10.3-5.76l6.76-15a2.4,2.4,0,0,0-1.42-3.23L38.51,6.1c-1.73-.47-2.21.71-2.21.71a2.57,2.57,0,0,0,1.82,3.47,3,3,0,0,0,1.18.31L23.92,47.42a7.63,7.63,0,0,1-1.26,1.81A2,2,0,0,0,22,52.07c1.18,1.74,2.92,0,2.92,0L34.33,47A4.91,4.91,0,0,0,37.17,43.32Z" transform="translate(-0.45 -3.54)"/><path d="M64.71,7.56a1.93,1.93,0,0,1,1.72.71c.29.94.11.89.11.89l-.11,40.33a2.54,2.54,0,0,0,1,1.89A1.35,1.35,0,0,0,69.38,51L74,48.19a2.7,2.7,0,0,1,2.24-.65c1.54-.77.42-2.37.42-2.37a1.52,1.52,0,0,1-.18-.89l.3-31.58c0-.94,0-.65,0-.65a4.47,4.47,0,0,0,.71-2.48c-.11-2.84-3.49-2.78-3.49-2.78a41.16,41.16,0,0,1-6-2.48c-3-1.72-4.26,0-4.26,0C62.29,6.85,64.71,7.56,64.71,7.56Z" transform="translate(-0.45 -3.54)"/><path d="M76.44,65.79c-1.06-.87-4.84-.72-4.84-.72a9.11,9.11,0,0,1-1.71-.17c-1.39-.36-1.87.2-1.87.2a3.54,3.54,0,0,0-.65.61c-.63.79-1.18,1.58-1.18,1.58a4.89,4.89,0,0,1-2.45,1.58h-19l.63-16c.08-2.07-1.58-1.93-1.58-1.93l-9-2.47c-2.37-.63-2.45,1.42-2.45,1.42-.32,2,2.29,2.53,2.29,2.53,1.18.39.71,1.1.71,1.1l.19,14.75c0,1.06-.41.94-.41.94C33,69,32.6,70.48,32.6,70.48a1.84,1.84,0,0,0,2,2.5H74.71A15.12,15.12,0,0,0,79,72.65c2.68-1.34.48-3.78.48-3.78Z" transform="translate(-0.45 -3.54)"/><path d="M93,40.09a2,2,0,0,0-1.94,2.42,1.26,1.26,0,0,0,.64,1.18,21.36,21.36,0,0,0,4,0C98.48,43.52,127,43,127,43c2.13-.41,10.24-.29,10.24-.29,1.36-.06,1,.06,1,.06.18.53,1.07.65,1.07.65,3-.59,1.24-3,1.24-3l-2.6-2.72c-.77-1.18-2.84-1.18-2.84-1.18-1.36.06-5.33,0-5.33,0A2.65,2.65,0,0,0,127,37.54,8,8,0,0,1,123.73,39l-17.5.36.82-22.12,16.8-.53c.65-.3.83-.18.83-.18,3.49.12,9,.18,9,.18,2.07.05,2.42-1.36,2.42-1.36.24-1.6-.65-2-.65-2a1.43,1.43,0,0,1-.65-.71A2.88,2.88,0,0,0,132.54,11H128a6.83,6.83,0,0,0-4.08,1.87H106.46c-1.12-2.3-2.84-1.83-2.84-1.83-1.41.18-10.61,0-10.61,0-3.34.77-1.27,3.84-1.27,3.84l2.54,2.37L93.87,40Z" transform="translate(-0.45 -3.54)"/><path d="M143.72,59.25a2.13,2.13,0,0,0-2.67-.59c-1.32.11-6-.3-6-.3-2.13-.12-3.14,2.29-3.14,2.29A4.24,4.24,0,0,1,129.17,62H119.06V50.2c.12-2.07-2.42-2.5-2.42-2.5a13.24,13.24,0,0,1-3.49-.87,29.48,29.48,0,0,1-3.91-1c-2.19-.29-2.36,1.24-2.36,1.24-.48,2.25,1.3,2.55,1.3,2.55L108.3,62H95.88a4.17,4.17,0,0,1-2.72-1.38A3.31,3.31,0,0,0,90,60a27.69,27.69,0,0,1-7.27-.36,1.56,1.56,0,0,0-1.78,1c-.71,1.88,1.9,2.8,1.9,2.8A14,14,0,0,1,85.94,66c.71,1.06,2.9.53,2.9.53a8.6,8.6,0,0,1,1.83-.41l45.9-.77a41.9,41.9,0,0,1,6.26-.06c2.13.3,2.72-.53,2.72-.53,1.6-1.07,0-3.37,0-3.37Z" transform="translate(-0.45 -3.54)"/><path d="M159.79,48.32l19.08-3.74,10.49-4.1c4-2.44,3.47-4.57,3.47-4.57,0-1.9-3.13-1.42-3.13-1.42-1.15.31-4.76.79-4.76.79l-21.53,1.34.16-7.33h17.74c3.4.08,3.55-1.88,3.55-1.88l4.66-12.15c.86-2.76-1.58-3.31-1.58-3.31l-7.89-2c-1.57-.39-4.81,1.74-4.81,1.74-2.21.39-13.56.31-13.56.31a6,6,0,0,0-3.31-1l-7.1-.65c-3-.16-1.5,2.36-1.5,2.36.63.71,3.24,3,3.24,3,1.1.87,1.73.47,1.73.47l20-.23.08,9.3a2.79,2.79,0,0,0-1.82-.39l-9.3-.16a8.84,8.84,0,0,0-2.21-1.18l-9.22-.16c-1.9,0-2.29,1-2.29,1a1.84,1.84,0,0,0,.63,2.61,3.3,3.3,0,0,1,1.58,1.42l-.24,11a8.94,8.94,0,0,0,.4,3.07L157,47.58A2.59,2.59,0,0,0,159.79,48.32Z" transform="translate(-0.45 -3.54)"/><path d="M203.71,9.1,193.54,5.63a2,2,0,0,0-2,2.91,4.32,4.32,0,0,0,3.07,1.38l-.39,39.23a2,2,0,0,0-2.53-.15l-2.36,1.49a8.65,8.65,0,0,1-3.55,1.19l-11.59-.08c-2-.16-2.45-1-2.45-1a1.37,1.37,0,0,0-1.26-.94l-9.07.39c-2.52-.08-2.44.71-2.44.71a2.33,2.33,0,0,0,.39,3.31,3.78,3.78,0,0,1,1.74,2.1l-.47,13.12c-4.18-.32-2.76,3-2.76,3a3.2,3.2,0,0,0,3.46.86c2.37-.23,20-.39,20-.39l16.89-.32c3.95-.23,3.22-2.6,3.22-2.6.08-1.81-2.84-1.81-2.84-1.81l2.68-11.86c.63-3.9-1.42-4.46-1.42-4.46l-3.7-2,7.41-4.33a3.26,3.26,0,0,0,.87-1.65l.71-31.71C205.13,9.65,203.71,9.1,203.71,9.1Zm-16,59.45s-4.26.16-5.83,0a5.36,5.36,0,0,0-2.84.07s-4.89.55-6,0v-13H188.1Z" transform="translate(-0.45 -3.54)"/><polygon points="23.28 82.66 5.65 82.66 5.26 89.14 22.37 89.14 23.28 82.66"/><polygon points="25.35 82.66 19.78 120.91 25.35 120.91 30.93 82.66 25.35 82.66"/><path d="M39,92.69H58.86l.91-6.48H34.41l-3.8,24.89h10l-.89,6.28h-9.4s-1.42.72-1.29,7.07h24.5l1.29-7.07H45.31l.89-6.28h9.64l.9-6H37.1Z" transform="translate(-0.45 -3.54)"/><polygon points="6.24 90.78 5.43 111.65 9.93 111.65 10.83 111.65 15.33 111.65 20.74 90.78 15.69 90.78 12.03 106.52 10.26 106.52 11.29 90.78 6.24 90.78"/><polygon points="86.8 98.41 87.81 92.12 85.55 92.12 86.99 82.47 81.42 82.47 77.66 107.55 83.23 107.55 84.61 98.41 86.8 98.41"/><polygon points="114.8 104.57 115.81 98.27 113.35 98.27 115.78 82.66 110.21 82.66 104.24 120.91 109.82 120.91 112.37 104.57 114.8 104.57"/><polygon points="177.83 105.48 181.73 88.36 183.74 88.36 182.34 105.48 187.88 105.48 188.71 82.65 184.08 82.65 183.15 82.65 178.53 82.65 172.63 105.48 177.83 105.48"/><polygon points="167.57 82.66 166.1 92.12 160.52 92.12 159.51 98.41 165.12 98.41 164.16 104.57 158.44 104.57 157.43 110.87 163.18 110.87 161.61 120.91 167.19 120.91 173.15 82.66 167.57 82.66"/><path d="M64.15,111.75H58.57l-1.31,9.68c-.12.83-.26,1.82-.41,3h24.5l1.3-7.07H63.38Z" transform="translate(-0.45 -3.54)"/><path d="M122.27,111.75h-5.58l-1.38,10.19c-.11.7-.22,1.53-.34,2.51h25l.82-6.35H121.4Z" transform="translate(-0.45 -3.54)"/><path d="M191.86,110.66h-19.4l-.56,5.23h19.21l-1.23,8.56h5.57l1.43-9.9c.14-.79.33-2,.55-3.89Z" transform="translate(-0.45 -3.54)"/><path d="M154.16,86h-5.57l-5,33.56c-.2,1.06-.44,2.61-.72,4.88h13.82l.82-7.07h-8Z" transform="translate(-0.45 -3.54)"/><path d="M.46,124.45H17.9l1.29-7.07H1.76S.33,118.1.46,124.45Z" transform="translate(-0.45 -3.54)"/><path d="M63.31,110.06h6.44c4.45-1,5.49-5.7,5.49-5.7L77,91.13a5.12,5.12,0,0,0-2.93-4.92H66.34c-2.86,1.38-4.41,4.45-5.23,8.88l-1.34,9.27C59.6,109,63.31,110.06,63.31,110.06Zm3.46-18.19H72L70,104.4H64.78Z" transform="translate(-0.45 -3.54)"/><path d="M91.74,86l-6,38.44,16.85,0,6-38.44ZM98,118.12l-4.91,0,4-26.23,4.9,0Z" transform="translate(-0.45 -3.54)"/><polygon points="143.38 95.82 122.51 95.82 122.7 94.27 143.61 94.27 145.39 82.47 120.48 82.44 119.66 87.87 140.48 87.87 140.31 89.6 119.4 89.6 117.76 100.54 142.66 100.57 143.38 95.82"/><polygon points="199.97 107.1 220.79 107.1 220.62 108.58 199.71 108.58 198 120.88 222.91 120.91 223.88 114.62 203.01 114.62 203.24 113.26 224.14 113.26 225.63 102.26 200.72 102.23 199.97 107.1"/><polygon points="116.46 107.1 141.37 107.1 142.08 102.38 117.17 102.35 116.46 107.1"/><polygon points="201.81 95.8 200.96 100.6 225.88 100.57 226.72 95.8 222.67 95.8 201.81 95.8"/><polygon points="228.01 88.18 228.99 82.35 204.06 82.38 201.98 94.37 226.97 94.37 227.81 89.66 206.9 89.66 207.19 88.18 228.01 88.18"/><polygon points="195.5 82.33 194.12 91.22 190.35 91.22 189.34 97.38 193.16 97.38 191.9 105.48 197.47 105.48 201.08 82.33 195.5 82.33"/></svg>