<svg xmlns="http://www.w3.org/2000/svg" viewBox="0 0 38.28 72.98"><defs><style>.cls-1{fill:#fff;}</style></defs><g id="레이어_2" data-name="레이어 2"><g id="레이어_1-2" data-name="레이어 1"><g id="레이어_2-2" data-name="레이어 2"><g id="Layer_1" data-name="Layer 1"><path class="cls-1" d="M37.51,72.74l.7-1.3a.5.5,0,0,0,0-.5L11.9,37.44a.51.51,0,0,0-.4-.2H.5a.56.56,0,0,0-.5.3v.2a.76.76,0,0,0,.2.4l36.51,34.7c.09.1.3.2.4.1S37.4,72.94,37.51,72.74Z"/><path class="cls-1" d="M38.21,2.14a.5.5,0,0,0,0-.5l-.7-1.3a1.5,1.5,0,0,0-.4-.3.29.29,0,0,0-.4.1h0L.21,35a.54.54,0,0,0-.2.4v.2a.54.54,0,0,0,.5.3h11a.49.49,0,0,0,.4-.2Z"/></g></g></g></g></svg>