<?xml version="1.0"?>
<svg xmlns="http://www.w3.org/2000/svg" xmlns:xlink="http://www.w3.org/1999/xlink" xmlns:svgjs="http://svgjs.com/svgjs" version="1.1" width="512" height="512" x="0" y="0" viewBox="0 0 512 512" style="enable-background:new 0 0 512 512" xml:space="preserve" class=""><g><path xmlns="http://www.w3.org/2000/svg" d="m437.02 74.98c-48.353-48.352-112.64-74.98-181.02-74.98s-132.667 26.628-181.02 74.98-74.98 112.64-74.98 181.02 26.628 132.667 74.98 181.02c48.353 48.351 112.64 74.98 181.02 74.98s132.667-26.629 181.02-74.98c48.352-48.353 74.98-112.64 74.98-181.02s-26.628-132.667-74.98-181.02zm-181.02 405.02c-123.514 0-224-100.486-224-224s100.486-224 224-224 224 100.486 224 224-100.486 224-224 224zm83.259-251.549c6.249 6.248 6.249 16.379 0 22.627-6.248 6.249-16.379 6.249-22.627 0l-44.632-44.632v180.103c0 8.837-7.164 16-16 16s-16-7.163-16-16v-180.102l-44.632 44.631c-3.124 3.124-7.219 4.686-11.313 4.686-4.095 0-8.189-1.562-11.314-4.687-6.248-6.248-6.248-16.379 0-22.627l71.946-71.945c6.248-6.248 16.378-6.249 22.627 0zm4.687-103c0 8.836-7.164 16-16 16h-143.892c-8.836 0-16-7.164-16-16s7.164-16 16-16h143.892c8.836 0 16 7.164 16 16z" fill="#ffffff" data-original="#000000" class=""/></g></svg>
