<svg xmlns="http://www.w3.org/2000/svg" viewBox="0 0 72.98 38.28"><defs><style>.cls-1{fill:#fff;}</style></defs><g id="레이어_2" data-name="레이어 2"><g id="Layer_1" data-name="Layer 1"><path class="cls-1" d="M72.74.77l-1.3-.7a.49.49,0,0,0-.5,0L37.44,26.38a.5.5,0,0,0-.2.4v11a.55.55,0,0,0,.3.5h.2a.76.76,0,0,0,.4-.2L72.84,1.57c.1-.09.2-.3.1-.4S72.94.88,72.74.77Z"/><path class="cls-1" d="M2.14.07a.49.49,0,0,0-.5,0L.34.77a1.38,1.38,0,0,0-.3.4.29.29,0,0,0,.1.4L35,38.07a.52.52,0,0,0,.4.2h.2a.55.55,0,0,0,.3-.5v-11a.52.52,0,0,0-.2-.4Z"/></g></g></svg>